<?xml version="1.0" encoding="UTF-8"?><svg id="Layer_2" xmlns="http://www.w3.org/2000/svg" viewBox="0 0 540.86 334.25"><defs><style>.cls-1{fill:#dedbcf;stroke-width:0px;}</style></defs><g id="Layer_1-2"><path class="cls-1" d="M540.86,162.34l-40.86-37.85-3.48-17.71-23.27-19.25-1.11-87.09-31.66,71.97-4.78-.13-.22-.66L411.54,0l-13.5,83.23-.8.05-212.18,13.31L0,191.08v1.25c1.63,1.42,8.5,7.03,20.41,11.41,16.19,5.95,34.06,6.96,53.13,2.99,29.73-6.18,78.81-45.13,102.4-63.85,3.34-2.65,6.22-4.94,8.45-6.65l1.72-1.33-.11,2.17c-3.42,66.24-19.07,181.53-21.22,197.2h19.54s25-142.45,25-142.45l22.38-1.4-.15,1.2-18.25,142.63h21.17s24.58-145.44,24.58-145.44l95.01-6.34-.12,1.18-15.78,150.51h19.22s24.73-153.17,24.73-153.17l24.51-1.54-.11,1.17-14.83,153.51h21.72s19.44-167.83,19.44-167.83l.39-.26,19.83-13.12.52.27,64.85,33.36,3.88-5.83-43.74-30.26,2.77-4.17,51.53,23.29,8.04-7.2ZM198.59,122.28l6.3-18.77,38.6,23.87-44.9-5.11ZM249.71,135.31l6.3-18.77,38.6,23.87-44.9-5.11ZM285.45,117.38l6.3-18.77,38.6,23.87-44.9-5.11ZM340.48,128.95l6.3-18.77,38.6,23.87-44.9-5.11ZM373.57,111.57l8.88-17.69,34.84,29.08-43.73-11.38ZM486.05,125.55h-.51c-2.43,0-15.01-.33-23.98-7.05-2.39-1.79-4.59-4.3-6.53-7.47-.72-1.17-1.41-2.44-2.05-3.77-2.83-5.88-3.96-11.42-3.98-11.47l-.04-.22,1.19-1.61h.26s1.16.05,3.18.43c.34.06.7.14,1.09.22,2.12.46,5.37,1.33,9.38,2.96.96.37,1.88.76,2.74,1.18,1.22.56,2.45,1.15,3.66,1.78,2.15,1.12,4.21,2.64,6.11,4.53.58.57,1.15,1.18,1.69,1.82,6.33,7.35,8.91,16.87,8.93,16.96l.07.25-1.21,1.47ZM477.76,111.83c2.81,3.71,4.72,8.79,5.25,10.29-1.6-.22-6.96-1-11.09-2.29,3.24-1.41,5.49-4.47,5.84-8ZM464.69,101.61c-3.45,1.24-5.96,4.35-6.43,8-2.51-4.04-4.62-9.93-5.25-11.76,1.69.35,6.78,1.51,11.67,3.76Z"/></g></svg>