<svg width="1700" height="1180" viewBox="0 0 1700 1180" fill="none" xmlns="http://www.w3.org/2000/svg">
  <g transform="translate(-1800)">
    <rect x="1800" y="40" width="1700" height="1100" fill="black"/>
    <path d="M2625.85 579.497L2613.99 577.508C2594.56 574.247 2592.06 568.671 2592.06 564.186C2592.06 555.798 2601.41 550.586 2616.44 550.586C2630.03 550.586 2640.36 556.009 2644.09 565.113L2644.63 566.443H2665.32L2664.61 563.803C2659.27 544.026 2641.12 531.727 2617.22 531.727C2601.17 531.727 2587.88 536.155 2579.79 544.198C2574.32 549.62 2571.5 556.497 2571.63 564.08C2571.98 580.874 2585.04 591.672 2610.41 596.157L2622.23 598.29C2641.4 602.105 2645.32 606.868 2645.32 612.836C2645.32 621.118 2634.59 626.875 2619.24 626.875C2602.5 626.875 2593.3 621.223 2588.48 608.006L2587.96 606.591H2568.24L2568.68 609.077C2572.64 631.686 2591.84 645.754 2618.75 645.754C2634.97 645.754 2648.57 641.154 2657.04 632.814C2662.78 627.143 2665.79 620.028 2665.73 612.214C2665.56 594.598 2652.51 583.887 2625.83 579.497H2625.87H2625.85Z" fill="white"/>
    <path d="M2845.86 533.267H2806.22V644.224H2845.86C2881.25 644.224 2905.01 621.932 2905.01 588.736C2905.01 555.541 2881.25 533.258 2845.86 533.258V533.267ZM2884.29 588.746C2884.29 611.316 2869.56 625.355 2845.86 625.355H2826.16V552.127H2845.86C2869.56 552.127 2884.29 566.147 2884.29 588.736V588.746Z" fill="white"/>
    <path d="M3009.29 533.269V549.594C2999.32 538.567 2986.11 532.341 2972.27 532.341C2939.52 532.341 2915.75 556.059 2915.75 588.729C2915.75 621.398 2939.52 645.116 2972.27 645.116C2986.1 645.116 2999.31 638.89 3009.29 627.863V644.207H3028.77V533.269H3009.29ZM3009.29 588.738C3009.29 610.84 2993.98 626.868 2972.87 626.868C2951.77 626.868 2936.46 610.84 2936.46 588.738C2936.46 566.637 2951.77 550.608 2972.87 550.608C2993.98 550.608 3009.29 566.637 3009.29 588.738Z" fill="white"/>
    <path d="M2775.2 548.455C2764.92 537.849 2749.94 531.766 2734.08 531.766C2701.42 531.766 2676.79 556.268 2676.79 588.775C2676.79 621.282 2702.04 645.784 2734.25 645.784C2756.95 645.784 2777.34 632.51 2786 612.436H2763.9C2756.92 622.009 2746.57 627.221 2734.27 627.221C2716.38 627.221 2701.74 615.362 2697.83 598.061H2790.49L2790.6 596.072C2791.73 576.486 2786.39 560.008 2775.22 548.474H2775.2V548.455ZM2697.61 579.47C2701.21 561.662 2715.08 550.31 2733.61 550.31C2749.29 550.31 2767 561.385 2769.76 579.47H2697.61Z" fill="white"/>
    <path d="M2373.51 496C2372.68 498.236 2371.81 500.993 2371.26 503.937C2369.65 512.385 2371.17 518.487 2375.8 522.055C2380.15 525.417 2392.78 530.858 2406.15 536.614C2410.51 538.496 2414.98 540.415 2419.53 542.418C2414.33 525.296 2388.56 505.688 2373.51 496Z" fill="white"/>
    <path d="M2346.96 511.845C2330.3 525.855 2321.5 538.44 2321.5 548.249C2321.5 567.755 2358.2 581.188 2372.34 584.718C2374.51 585.259 2421.04 597.136 2430.04 622.967C2434.73 620.098 2441.27 615.971 2447.81 611.434C2470.49 595.673 2471.23 590.186 2471.24 589.954C2471.24 586.954 2468.39 580.228 2449.25 569.143C2435.22 561.02 2417.41 553.345 2401.69 546.573C2386.46 540.015 2374.43 534.826 2368.98 530.625C2358.98 522.893 2358.55 511.063 2360.47 501.45C2356.34 504.375 2351.63 507.914 2346.96 511.845Z" fill="white"/>
    <path d="M2366.15 657.954C2361.79 654.592 2349.17 649.152 2335.8 643.395C2331.44 641.513 2326.97 639.594 2322.43 637.582C2327.62 654.703 2353.39 674.312 2368.45 684C2369.28 681.764 2370.14 679.007 2370.7 676.073C2372.31 667.624 2370.78 661.522 2366.15 657.954H2366.15Z" fill="white"/>
    <path d="M2395 668.155C2411.65 654.144 2420.46 641.56 2420.46 631.741C2420.46 612.235 2383.76 598.803 2369.62 595.272C2367.44 594.732 2320.91 582.855 2311.92 557.024C2307.23 559.893 2300.68 564.02 2294.15 568.556C2271.47 584.318 2270.73 589.804 2270.71 590.028C2270.71 593.027 2273.57 599.753 2292.7 610.838C2306.73 618.961 2324.55 626.637 2340.26 633.409C2355.5 639.967 2367.53 645.155 2372.98 649.356C2382.99 657.088 2383.41 668.918 2381.49 678.532C2385.63 675.607 2390.33 672.067 2395.01 668.136L2395 668.155Z" fill="white"/>
  </g>
</svg>

