<svg width="44" height="44" viewBox="0 0 44 44" fill="none" xmlns="http://www.w3.org/2000/svg">
  <rect width="44" height="44" fill="black"/>
  <!-- Inner S / mark -->
  <path d="M23.4562 19.6659L23.553 18.0872L18.3261 14.8296L13.1185 18.0872L13.338 21.6418H27.3724L26.5588 35.0401H10.1128L9.77377 29.4386L9.66723 27.7114H13.7093L13.8126 29.4386L13.9095 31.0109H22.7621L23.0849 25.671H9.54777L8.9505 15.9402L18.3261 10.0708L27.721 15.9402L27.4951 19.6659H23.4562Z" fill="white"/>
  <path d="M26.94 35.4435H9.73205L9.24132 27.3076H14.0841L14.2843 30.6072H22.3813L22.6558 26.0872H9.16706L8.52136 15.7399L18.3134 9.60571L28.1249 15.7399L27.8601 20.0822H23.0174L23.1239 18.313L18.3167 15.3169L13.5352 18.3001L13.716 21.238H27.802L26.94 35.4435ZM10.5004 34.6363H26.1781L26.9432 22.0452H12.9573L12.7023 17.8707L18.3263 14.3516L23.9698 17.8707L23.8826 19.2622H27.1111L27.3016 16.1564L18.3263 10.5484L9.36723 16.1564L9.92576 25.2704H23.5113L23.14 31.4046H13.532L13.3286 28.1244H10.1001L10.5004 34.6363Z" fill="white"/>
  <!-- Outer shield -->
  <path d="M17.0027 0.937239L1.46063 10.6906C1.0826 10.9288 0.775557 11.2642 0.571651 11.6618C0.367744 12.0594 0.27447 12.5045 0.301594 12.9505L2.02239 41.1096C2.06025 41.7405 2.33766 42.3332 2.79793 42.7665C3.25819 43.1997 3.86655 43.4409 4.49865 43.4406H32.2057C32.8378 43.4409 33.4462 43.1997 33.9064 42.7665C34.3667 42.3332 34.6441 41.7405 34.682 41.1096L36.4028 12.9441C36.431 12.4972 36.3375 12.051 36.1323 11.6531C35.927 11.2551 35.6177 10.9202 35.2373 10.6841L19.6371 0.937239C19.2421 0.690432 18.7857 0.55957 18.3199 0.55957C17.8541 0.55957 17.3977 0.690432 17.0027 0.937239ZM30.288 39.7923H6.38088C6.15774 39.792 5.94311 39.7066 5.7806 39.5537C5.6181 39.4008 5.5199 39.1918 5.50595 38.9691L3.97564 13.9191C3.96638 13.7616 3.99954 13.6046 4.07166 13.4643C4.14378 13.324 4.25222 13.2057 4.38566 13.1216L17.8615 4.67908C18.0004 4.59058 18.1616 4.54357 18.3264 4.54357C18.4911 4.54357 18.6523 4.59058 18.7913 4.67908L32.2767 13.1087C32.4104 13.1925 32.5191 13.3108 32.5912 13.4512C32.6634 13.5915 32.6964 13.7487 32.6868 13.9062L31.1629 38.9691C31.149 39.1918 31.0508 39.4008 30.8883 39.5537C30.7257 39.7066 30.5111 39.792 30.288 39.7923Z" fill="white"/>
</svg>

