<svg width="2200" height="2200" viewBox="0 0 2200 2200" fill="none" xmlns="http://www.w3.org/2000/svg">
<path d="M745.255 1349.22C938.171 1308.64 1061.67 1119.36 1021.09 926.442C980.513 733.526 791.23 610.03 598.313 650.607C405.397 691.184 281.901 880.468 322.478 1073.38C363.055 1266.3 552.339 1389.8 745.255 1349.22Z" fill="#F7771A"/>
<path d="M1474.16 352.19C1510.67 384.231 1546.63 416.715 1579.21 452.988C1799.55 698.436 1858.95 1060.21 1727.77 1362.49C1641.05 1562.32 1499.34 1710.48 1302.59 1803.2C1128.54 1885.27 945.635 1905.5 756.564 1866.06C753.434 1865.39 750.437 1864.41 746.69 1861.54C980.396 1845.61 1181.07 1757.66 1339.66 1585.15C1498.38 1412.56 1575.66 1206.96 1567 971.642C1559.97 779.677 1494.77 608.141 1372.45 459.451C1250.54 311.12 1094.5 215.641 908.421 168.318C911.648 161.412 916.558 163.53 920.329 163.492C1016.88 161.677 1110.98 176.061 1202.72 206.237C1254.21 223.189 1303.47 244.968 1350.98 271C1353.3 272.254 1356.02 272.803 1358.57 273.723L1474.06 352.207L1474.16 352.19Z" fill="#F7771A"/>
</svg>
